<svg width="0" height="0" class="svg-icons">
  <symbol version="1.1" xmlns="http://www.w3.org/2000/svg" xmlns:xlink="http://www.w3.org/1999/xlink" viewBox="0 0 24 24" id="clipboard-icon">
    <title>ic_fluent_copy_24_regular</title>
    <desc>Created with Sketch.</desc>
    <g id="-Product-Icons" stroke="none" stroke-width="1" fill-rule="evenodd">
      <g class="clip-inner" fill-rule="nonzero">
        <path d="M5.50280381,4.62704038 L5.5,6.75 L5.5,17.2542087 C5.5,19.0491342 6.95507456,20.5042087 8.75,20.5042087 L17.3662868,20.5044622 C17.057338,21.3782241 16.2239751,22.0042087 15.2444057,22.0042087 L8.75,22.0042087 C6.12664744,22.0042087 4,19.8775613 4,17.2542087 L4,6.75 C4,5.76928848 4.62744523,4.93512464 5.50280381,4.62704038 Z M17.75,2 C18.9926407,2 20,3.00735931 20,4.25 L20,17.25 C20,18.4926407 18.9926407,19.5 17.75,19.5 L8.75,19.5 C7.50735931,19.5 6.5,18.4926407 6.5,17.25 L6.5,4.25 C6.5,3.00735931 7.50735931,2 8.75,2 L17.75,2 Z M17.75,3.5 L8.75,3.5 C8.33578644,3.5 8,3.83578644 8,4.25 L8,17.25 C8,17.6642136 8.33578644,18 8.75,18 L17.75,18 C18.1642136,18 18.5,17.6642136 18.5,17.25 L18.5,4.25 C18.5,3.83578644 18.1642136,3.5 17.75,3.5 Z"></path>
      </g>
    </g>
  </symbol>
  <symbol xmlns="http://www.w3.org/2000/svg" viewBox="0 0 14 10" id="tick-icon">
    <path fill-rule="evenodd" clip-rule="evenodd" d="M13.7071 0.292893C14.0976 0.683417 14.0976 1.31658 13.7071 1.70711L5.70711 9.70711C5.31658 10.0976 4.68342 10.0976 4.29289 9.70711L0.292893 5.70711C-0.0976311 5.31658 -0.0976311 4.68342 0.292893 4.29289C0.683417 3.90237 1.31658 3.90237 1.70711 4.29289L5 7.58579L12.2929 0.292893C12.6834 -0.0976311 13.3166 -0.0976311 13.7071 0.292893Z" ></path>
  </symbol>
</svg>